<svg width="25" height="20" xmlns="http://www.w3.org/2000/svg" xmlns:xlink="http://www.w3.org/1999/xlink"><defs><path d="M22 18.095c0 1.05-.854 1.905-1.905 1.905H6V4.381c0-.21.171-.381.381-.381h15.238c.21 0 .381.17.381.381v13.714zM21.375 2h-15C4.928 2 3.75 3.163 3.75 4.593v14.444c0 .408-.336.74-.75.74a.746.746 0 01-.75-.74V8.297c0-.615-.504-1.112-1.125-1.112S0 7.682 0 8.296v10.741c0 1.557 1.226 2.824 2.773 2.94.076.006.149.023.227.023h16.875C22.149 22 24 20.173 24 17.926V4.593C24 3.163 22.823 2 21.375 2zm-2.434 4H9.06C8.474 6 8 6.48 8 7.071V9.93c0 .59.474 1.07 1.059 1.07h9.882C19.526 11 20 10.52 20 9.929V7.07C20 6.48 19.526 6 18.941 6m0 7H9.06C8.474 13 8 13.447 8 14c0 .553.474 1 1.059 1h9.882c.585 0 1.059-.447 1.059-1 0-.553-.474-1-1.059-1m0 3H9.06C8.474 16 8 16.447 8 17c0 .553.474 1 1.059 1h9.882c.585 0 1.059-.447 1.059-1 0-.553-.474-1-1.059-1" id="a"/></defs><use fill="#7C98B6" xlink:href="#a" transform="translate(.5 -2)" fill-rule="evenodd"/></svg>