<?xml version="1.0" encoding="UTF-8"?>
<svg width="20px" height="24px" viewBox="0 0 20 24" version="1.1" xmlns="http://www.w3.org/2000/svg" xmlns:xlink="http://www.w3.org/1999/xlink">
    <!-- Generator: Sketch 63.1 (92452) - https://sketch.com -->
    <title>Icons/Utilities/Drag+Drop Layout File</title>
    <desc>Created with Sketch.</desc>
    <defs>
        <path d="M18.6556731,22 L10,22 L10,17 L20,17 L20,21.2708181 C20,21.8731224 19.2695824,22 18.6556731,22 M4,21.1666667 L4,3.25 C4,2.56083333 4.55596861,2 5.23915737,2 L8,2 L8,22 L5.23915737,22 C4.67327551,22 4,21.855 4,21.1666667 M15.0708012,8.86785974 L20,8.86785974 L20,15 L10,15 L10,2 L12.8302563,2 L12.8302563,6.72165357 C12.8302563,7.90550089 13.8349167,8.86785974 15.0708012,8.86785974 M21.9758333,7.3672 L21.9758333,7.3656 C21.955,7.2648 21.915,7.1672 21.8675,7.0744 C21.8558333,7.0512 21.8433333,7.028 21.83,7.0056 C21.7758333,6.9152 21.7133333,6.828 21.6341667,6.7512 L14.9675,0.3512 C14.8875,0.2752 14.7966667,0.216 14.7025,0.164 C14.6791667,0.1504 14.6541667,0.1376 14.63,0.1264 C14.5333333,0.0808 14.4325,0.0432 14.3283333,0.0232 C14.3258333,0.0232 14.3225,0.0232 14.32,0.0224 C14.2425,0.008 14.1633333,0 14.0833333,0 L5.75,0 C3.6825,0 2,1.6152 2,3.6 L2,20.8 C2,22.684 3.5425,24 5.75,24 L18.25,24 C20.4575,24 22,22.684 22,20.8 L22,7.6 C22,7.5208 21.9916667,7.4432 21.9758333,7.3672" id="path-1"></path>
    </defs>
    <g id="----Icons" stroke="none" stroke-width="1" fill="none" fill-rule="evenodd">
        <g id="Icons/Dev-Tools" transform="translate(-118.000000, -396.000000)">
            <g id="Icons/Devtools/Drag+DropLayoutFile" transform="translate(116.000000, 396.000000)">
                <mask id="mask-2" fill="white">
                    <use xlink:href="#path-1"></use>
                </mask>
                <use id="Icons/Utilities/Drag+DropLayoutFile" fill="#7C98B6" fill-rule="evenodd" xlink:href="#path-1"></use>
            </g>
        </g>
    </g>
</svg>