<svg width="92" height="47" xmlns="http://www.w3.org/2000/svg"><g stroke-width="2" stroke="#5FB5FF" fill="none" fill-rule="evenodd" stroke-linecap="round"><path d="M40.684 5.522c-3.655 3.933-5.116 9.85-1.933 15.37C44.028 30.042 52.316 38.078 63.615 45c11.52-6.922 19.808-14.958 24.864-24.108C96.063 7.167 78.47-8.882 63.49 8.979c-2.85-4.327-6.216-6.679-9.575-7.563m26.426 4.979c4.032 1.933 5.588 5.107 4.667 9.52"/><path d="M48.907 26.454a50.788 50.788 0 003.572-5.562C60.063 7.167 42.47-8.882 27.49 8.979c-11.852-18-32.653-1.812-24.738 11.913C8.028 30.042 16.316 38.078 27.615 45c6.949-5.199 11.638-8.874 14.067-11.025"/></g></svg>