<svg width="80" height="52" xmlns="http://www.w3.org/2000/svg"><g transform="rotate(30 46.196 32.598)" stroke-width="2" stroke="#FFD842" fill="none" fill-rule="evenodd"><circle cx="14.02" cy="54.034" r="5.817"/><circle cx="14.766" cy="21.817" r="5.817"/><circle cx="32.927" cy="53.772" r="5.817"/><circle cx="33.41" cy="21.817" r="5.817"/><circle cx="5.817" cy="37.925" r="5.817"/><circle cx="42.508" cy="37.925" r="5.817"/><path d="M36.177 26.959l3.629 6.285m-28.172-6.505l-3.58 5.369M40.27 43.742l-3.578 6.254M7.107 43.742l3.683 6.254m9.793-28.627h7.159m-7.893 34.164l6.998-.008"/><circle cx="42.479" cy="5.817" r="5.817"/><circle cx="61.123" cy="5.817" r="5.817"/><path d="M39.347 10.739l-3.58 5.369M48.296 5.37l7.16-.001"/></g></svg>