<svg width="52" height="59" xmlns="http://www.w3.org/2000/svg"><g transform="translate(5 3)" stroke="#5FB5FF" fill="none" fill-rule="evenodd"><path stroke-width="2" d="M0 41.5h27"/><path d="M34.726 11c3.386 0 6.179 2.466 6.573 5.649l.002-.002c.728 6.727-2.085 12.498-8.493 17.181l-.196.142-.426-.558c5.188-3.733 8.01-8.112 8.482-13.155-1.079 2.126-3.335 3.588-5.942 3.588-3.657 0-6.621-2.875-6.621-6.422 0-3.547 2.964-6.423 6.62-6.423zm0 .694c-3.262 0-5.906 2.565-5.906 5.729 0 3.163 2.644 5.728 5.906 5.728 3.26 0 5.905-2.565 5.905-5.728 0-3.164-2.644-5.729-5.905-5.729zM18.62 11c3.387 0 6.18 2.466 6.574 5.649l.002-.002c.728 6.727-2.085 12.498-8.493 17.181l-.195.142-.427-.558c5.189-3.733 8.01-8.112 8.482-13.155-1.078 2.126-3.334 3.588-5.942 3.588-3.657 0-6.621-2.875-6.621-6.422C12 13.876 14.964 11 18.62 11zm0 .694c-3.26 0-5.904 2.565-5.904 5.729 0 3.163 2.644 5.728 5.905 5.728s5.905-2.565 5.905-5.728c0-3.164-2.644-5.729-5.905-5.729z" fill="#5FB5FF" fill-rule="nonzero" stroke-width="1.25"/><path d="M27 7.058V3a3 3 0 00-3-3H3a3 3 0 00-3 3v47a3 3 0 003 3h21a3 3 0 003-3V30.412h0" stroke-width="2" stroke-linecap="round"/><circle stroke-width="2" cx="13.5" cy="47.5" r="2.5"/></g></svg>